<svg width="52" height="52" viewBox="0 0 52 52" fill="none" xmlns="http://www.w3.org/2000/svg">
<path d="M15.0909 15.0909V8.54545C15.0909 6.80949 15.7805 5.14463 17.008 3.91712C18.2355 2.68961 19.9004 2 21.6364 2H30.3636C32.0996 2 33.7645 2.68961 34.992 3.91712C36.2195 5.14463 36.9091 6.80949 36.9091 8.54545C36.9091 10.2814 36.2195 11.9463 34.992 13.1738C33.7645 14.4013 32.0996 15.0909 30.3636 15.0909H2V39.0909C2 41.9842 3.14935 44.759 5.1952 46.8048C7.24105 48.8507 10.0158 50 12.9091 50H39.0909C41.9842 50 44.759 48.8507 46.8048 46.8048C48.8507 44.759 50 41.9842 50 39.0909V15.0909H42" stroke="black" stroke-width="3.5"/>
</svg>
