<svg width="48" height="48" viewBox="0 0 48 48" fill="currentColor" id="icon" xmlns="http://www.w3.org/2000/svg">
<path d="M24 0C19.626 0 15.6 1.066 11.92 3.2C8.29145 5.28191 5.28191 8.29145 3.2 11.92C1.066 15.6 0 19.626 0 24C0 28.374 1.066 32.4 3.2 36.08C5.28191 39.7086 8.29145 42.7181 11.92 44.8C15.6 46.934 19.626 48 24 48C28.374 48 32.4 46.934 36.08 44.8C39.7086 42.7181 42.7181 39.7086 44.8 36.08C46.934 32.4 48 28.374 48 24C48 19.626 46.934 15.6 44.8 11.92C42.7181 8.29145 39.7086 5.28191 36.08 3.2C32.4 1.066 28.374 0 24 0ZM30.24 24H26.24V38.4H20.8V24H17.28V19.04H20.8V16C20.8 13.76 21.174 12.16 21.92 11.2C22.774 10.026 24.32 9.44 26.56 9.44H30.56V14.4H28.16C27.306 14.4 26.774 14.534 26.56 14.8C26.346 15.066 26.24 15.574 26.24 16.32V18.72H30.56L30.24 24Z" fill="currentColor"/>
</svg>
