<svg width="60" height="53" viewBox="0 0 60 53" fill="none" xmlns="http://www.w3.org/2000/svg">
<path d="M43.7713 2.00005C47.5744 2.00005 51.1477 3.47803 53.8364 6.15615C56.5026 8.8197 58 12.4293 58 16.1927C58 19.956 56.5026 23.5656 53.8364 26.2292L30.0007 50L6.1622 26.2292C3.49688 23.5657 2 19.9567 2 16.1941C2 12.4314 3.49688 8.82245 6.1622 6.15901C7.48075 4.83656 9.04927 3.78804 10.7769 3.07415C12.5046 2.36026 14.3572 1.99518 16.2273 2.00005C20.0304 2.00005 23.6038 3.47803 26.2924 6.15615L28.4754 8.33302L30.0007 9.85396L31.5231 8.33302L33.7062 6.15615C35.0253 4.8346 36.5939 3.78686 38.3215 3.0735C40.0491 2.36013 41.9014 1.99528 43.7713 2.00005Z" stroke="black" stroke-width="3.5"/>
</svg>
