<svg width="48" height="48" viewBox="0 0 48 48" fill="currentColor" xmlns="http://www.w3.org/2000/svg">
<path d="M32 24.96C31.7958 26.0026 31.4171 27.0033 30.88 27.92C30.3484 28.8244 29.6412 29.6132 28.8 30.24C27.6874 31.0719 26.3482 31.5462 24.96 31.6C23.5888 31.6571 22.2296 31.3243 21.04 30.64C19.8272 29.9613 18.8503 28.9286 18.24 27.68C17.28 25.76 17.066 23.734 17.6 21.6H15.36L15.52 32.64C15.52 32.854 15.6 33.066 15.76 33.28C15.92 33.494 16.106 33.6 16.32 33.6H32.96C33.174 33.6 33.386 33.494 33.6 33.28C33.814 33.066 33.92 32.854 33.92 32.64V21.6H31.68C32 22.666 32.106 23.786 32 24.96ZM24.64 28.96C25.92 28.96 27.04 28.48 28 27.52C28.96 26.56 29.44 25.414 29.44 24.08C29.4514 22.7763 28.965 21.5174 28.08 20.56C27.174 19.546 26.054 19.04 24.72 19.04C23.386 19.04 22.24 19.52 21.28 20.48C20.32 21.44 19.84 22.586 19.84 23.92C19.84 25.254 20.294 26.426 21.2 27.44C22.106 28.454 23.2 28.96 24.48 28.96H24.64ZM32.96 13.76H30.72C30.506 13.76 30.294 13.866 30.08 14.08C29.866 14.294 29.76 14.506 29.76 14.72V17.44C29.974 17.866 30.294 18.08 30.72 18.08H32.96C33.28 18.08 33.52 17.974 33.68 17.76C33.8282 17.5789 33.9126 17.3539 33.92 17.12V14.72C33.92 14.506 33.814 14.294 33.6 14.08C33.386 13.866 33.174 13.76 32.96 13.76ZM24 0C19.626 0 15.6 1.066 11.92 3.2C8.29145 5.28191 5.28191 8.29145 3.2 11.92C1.066 15.6 0 19.626 0 24C0 28.374 1.066 32.4 3.2 36.08C5.28191 39.7086 8.29145 42.7181 11.92 44.8C15.6 46.934 19.626 48 24 48C28.374 48 32.4 46.934 36.08 44.8C39.7086 42.7181 42.7181 39.7086 44.8 36.08C46.934 32.4 48 28.374 48 24C48 19.626 46.934 15.6 44.8 11.92C42.7181 8.29145 39.7086 5.28191 36.08 3.2C32.4 1.066 28.374 0 24 0ZM36.48 33.76L36.32 33.92V34.08C36.3245 34.3329 36.2771 34.5841 36.1808 34.818C36.0845 35.0519 35.9413 35.2636 35.76 35.44C35.3897 35.8117 34.9156 36.0627 34.4 36.16H15.04C14.7799 36.1616 14.5228 36.105 14.2874 35.9942C14.0521 35.8835 13.8445 35.7214 13.68 35.52C13.3163 35.1125 13.0677 34.6155 12.96 34.08L12.8 33.76L12.96 14.08C12.96 13.546 13.146 13.066 13.52 12.64C13.894 12.214 14.346 11.946 14.88 11.84H34.24C34.7556 11.9373 35.2297 12.1883 35.6 12.56C35.9717 12.9303 36.2227 13.4044 36.32 13.92L36.48 33.76Z" fill="currentColor"/>
</svg>
