<svg width="30" height="42" viewBox="0 0 30 42" fill="none" xmlns="http://www.w3.org/2000/svg">
<path fill-rule="evenodd" clip-rule="evenodd" d="M0 15C0 11.0218 1.58035 7.20644 4.3934 4.3934C7.20644 1.58035 11.0218 0 15 0C18.9782 0 22.7936 1.58035 25.6066 4.3934C28.4196 7.20644 30 11.0218 30 15C30 17.41 29.23 20.152 28.132 22.856C27.022 25.584 25.528 28.39 23.972 30.966C22.552 33.3138 21.012 35.5868 19.358 37.776C17.982 39.586 16.726 41.04 15.936 41.67C15.6702 41.8823 15.3401 41.9979 15 41.9979C14.6599 41.9979 14.3298 41.8823 14.064 41.67C13.274 41.04 12.018 39.586 10.642 37.776C8.98868 35.5868 7.4493 33.3137 6.03 30.966C4.47 28.39 2.978 25.584 1.87 22.854C0.77 20.152 0 17.41 0 15ZM15 21.498C16.7239 21.498 18.3772 20.8132 19.5962 19.5942C20.8152 18.3752 21.5 16.7219 21.5 14.998C21.5 13.2741 20.8152 11.6208 19.5962 10.4018C18.3772 9.18282 16.7239 8.498 15 8.498C13.2761 8.498 11.6228 9.18282 10.4038 10.4018C9.18482 11.6208 8.5 13.2741 8.5 14.998C8.5 16.7219 9.18482 18.3752 10.4038 19.5942C11.6228 20.8132 13.2761 21.498 15 21.498Z" fill="white"/>
</svg>
