<svg width="48" height="48" viewBox="0 0 48 48" fill="currentColor" xmlns="http://www.w3.org/2000/svg">
<path d="M24 0C19.626 0 15.6 1.066 11.92 3.2C8.29145 5.28191 5.28191 8.29145 3.2 11.92C1.066 15.6 0 19.626 0 24C0 28.374 1.066 32.4 3.2 36.08C5.28191 39.7086 8.29145 42.7181 11.92 44.8C15.6 46.934 19.626 48 24 48C28.374 48 32.4 46.934 36.08 44.8C39.7086 42.7181 42.7181 39.7086 44.8 36.08C46.934 32.4 48 28.374 48 24C48 19.626 46.934 15.6 44.8 11.92C42.7181 8.29145 39.7086 5.28191 36.08 3.2C32.4 1.066 28.374 0 24 0ZM36 18.56V19.36C36 22.134 35.334 24.8 34 27.36C32.6844 29.9006 30.726 32.052 28.32 33.6C25.654 35.306 22.666 36.16 19.36 36.16C16.1394 36.1841 12.9776 35.2966 10.24 33.6H11.68C14.454 33.6 16.906 32.746 19.04 31.04C17.76 31.04 16.614 30.64 15.6 29.84C14.586 29.04 13.866 28 13.44 26.72L14.56 27.04C15.306 27.04 15.84 26.934 16.16 26.72C14.7985 26.5214 13.5662 25.8049 12.72 24.72C11.8373 23.6663 11.3556 22.3345 11.36 20.96C12.214 21.494 13.12 21.76 14.08 21.76C12.266 20.694 11.36 19.04 11.36 16.8C11.36 15.734 11.626 14.72 12.16 13.76C13.76 15.68 15.6 17.174 17.68 18.24C19.7914 19.3149 22.1122 19.9156 24.48 20C24.266 19.68 24.16 19.2 24.16 18.56C24.16 16.96 24.746 15.574 25.92 14.4C27.094 13.226 28.48 12.64 30.08 12.64C31.68 12.64 33.174 13.226 34.56 14.4C35.52 14.186 36.8 13.706 38.4 12.96C37.974 14.454 37.12 15.52 35.84 16.16H36C37.494 15.84 38.56 15.52 39.2 15.2C38.134 16.586 37.066 17.706 36 18.56Z" fill="currentColor"/>
</svg>
