<svg width="48" height="48" viewBox="0 0 48 48" fill="currentColor" xmlns="http://www.w3.org/2000/svg">
<path d="M22.56 35.2C22.4711 35.3923 22.3331 35.5578 22.16 35.68C22.0197 35.7803 21.8524 35.836 21.68 35.84C21.52 35.84 21.414 35.786 21.36 35.68C21.2983 35.5279 21.271 35.3639 21.28 35.2V29.28H19.84V35.84C19.8243 36.202 19.9073 36.5615 20.08 36.88C20.24 37.146 20.48 37.28 20.8 37.28C21.12 37.28 21.414 37.174 21.68 36.96C21.946 36.746 22.24 36.48 22.56 36.16V37.12H24V29.28H22.56V35.2ZM13.92 28V26.4H19.2V28H17.44V37.12H15.68V28H13.92ZM23.84 18.56C23.626 18.56 23.44 18.48 23.28 18.32C23.2039 18.248 23.1434 18.1611 23.1021 18.0648C23.0608 17.9685 23.0397 17.8648 23.04 17.76V12.96C23.04 12.854 23.094 12.746 23.2 12.64C23.306 12.534 23.494 12.48 23.76 12.48C24.026 12.48 24.24 12.534 24.4 12.64C24.4784 12.6921 24.5418 12.7639 24.5838 12.8481C24.6259 12.9323 24.6453 13.026 24.64 13.12V17.76C24.64 17.974 24.56 18.16 24.4 18.32C24.328 18.3961 24.2411 18.4566 24.1448 18.4979C24.0485 18.5392 23.9448 18.5603 23.84 18.56ZM27.84 35.2C27.84 33.92 27.894 32.586 28 31.2C28 30.986 27.92 30.8 27.76 30.64C27.6 30.48 27.44 30.4 27.28 30.4H27.04L26.56 30.72V35.52L27.04 35.84L27.36 36C27.574 36 27.706 35.946 27.76 35.84C27.814 35.734 27.84 35.52 27.84 35.2ZM28 29.12C28.426 29.12 28.774 29.28 29.04 29.6C29.306 29.92 29.44 30.4 29.44 31.04V35.52C29.44 36.054 29.334 36.48 29.12 36.8C29.0319 36.9488 28.9003 37.0669 28.7429 37.1385C28.5856 37.21 28.41 37.2315 28.24 37.2C27.9117 37.1581 27.5894 37.0775 27.28 36.96C27.0396 36.8761 26.8396 36.7047 26.72 36.48V37.12H25.12V26.4H26.72V29.92C26.934 29.706 27.146 29.52 27.36 29.36C27.5411 29.2118 27.7661 29.1274 28 29.12ZM35.84 39.36C36.374 38.934 36.694 37.546 36.8 35.2C36.906 34.026 37.014 32.906 37.12 31.84C37.12 30.88 37.014 29.814 36.8 28.64C36.586 26.294 36.24 24.854 35.76 24.32C35.28 23.786 33.226 23.414 29.6 23.2L24.32 23.04L18.88 23.2C15.254 23.414 13.2 23.786 12.72 24.32C12.24 24.854 11.894 26.294 11.68 28.64C11.5735 29.7033 11.5201 30.7713 11.52 31.84C11.52 32.906 11.574 34.026 11.68 35.2C11.894 37.546 12.24 38.96 12.72 39.44C13.2 39.92 15.254 40.32 18.88 40.64L24.32 40.8L29.6 40.64C33.226 40.32 35.306 39.946 35.84 39.52V39.36ZM16.8 8H14.88L17.12 15.2V19.68H19.04V14.88L21.28 8H19.36L18.24 12.64H18.08L16.8 8ZM21.44 13.12V17.6C21.44 18.346 21.654 18.934 22.08 19.36C22.506 19.786 23.094 20 23.84 20C24.586 20 25.174 19.786 25.6 19.36C26.026 18.934 26.24 18.346 26.24 17.6V13.12C26.24 12.48 26.026 11.946 25.6 11.52C25.174 11.094 24.586 10.88 23.84 10.88C23.094 10.88 22.506 11.094 22.08 11.52C21.654 11.946 21.44 12.48 21.44 13.12ZM27.68 11.2V18.4C27.6643 18.762 27.7473 19.1215 27.92 19.44C28.08 19.706 28.346 19.84 28.72 19.84C29.094 19.84 29.44 19.76 29.76 19.6C30.08 19.44 30.4 19.2 30.72 18.88V19.84H32.48V11.2H30.72V17.6C30.6178 17.8089 30.4489 17.9778 30.24 18.08C30.068 18.1753 29.8764 18.2301 29.68 18.24C29.52 18.24 29.414 18.214 29.36 18.16C29.306 18.106 29.28 17.974 29.28 17.76V11.04H27.68V11.2ZM24 0C28.374 0 32.4 1.066 36.08 3.2C39.7086 5.28191 42.7181 8.29145 44.8 11.92C46.934 15.6 48 19.626 48 24C48 28.374 46.934 32.4 44.8 36.08C42.7181 39.7086 39.7086 42.7181 36.08 44.8C32.4 46.934 28.374 48 24 48C19.626 48 15.6 46.934 11.92 44.8C8.29145 42.7181 5.28191 39.7086 3.2 36.08C1.066 32.4 0 28.374 0 24C0 19.626 1.066 15.6 3.2 11.92C5.28191 8.29145 8.29145 5.28191 11.92 3.2C15.6 1.066 19.626 0 24 0ZM33.12 32.16L32.96 31.36C32.96 31.04 32.906 30.8 32.8 30.64C32.7479 30.5616 32.6761 30.4983 32.5919 30.4562C32.5077 30.4141 32.414 30.3947 32.32 30.4C32.226 30.3947 32.1323 30.4141 32.0481 30.4562C31.9639 30.4983 31.8921 30.5616 31.84 30.64C31.734 30.8 31.68 31.04 31.68 31.36V32.16H33.12ZM32.48 29.12C33.12 29.12 33.626 29.306 34 29.68C34.374 30.054 34.56 30.614 34.56 31.36V33.28H31.68V34.88C31.68 35.2 31.734 35.44 31.84 35.6C31.946 35.76 32.134 35.84 32.4 35.84C32.666 35.84 32.854 35.76 32.96 35.6C33.066 35.44 33.12 35.146 33.12 34.72V34.4H34.56V34.88C34.56 35.626 34.374 36.214 34 36.64C33.626 37.066 33.094 37.28 32.4 37.28C31.706 37.28 31.174 37.066 30.8 36.64C30.426 36.214 30.24 35.626 30.24 34.88V31.36C30.24 30.72 30.454 30.186 30.88 29.76C31.306 29.334 31.84 29.12 32.48 29.12Z"/>
</svg>
